# xmcd
# Track frame offsets:
# 150
# 13124
# 28173
# 43963
# 56767
# 69637
# 82276
# 93943
# 109575
# 123148
# 136029
# 149786
# 164071
# 185532
# 201738
# 218269
#
# Disc length: 3114 seconds
# Revision: 0
# Processed by: cddbd v1.5.1PL0 Copyright (c) Steve Scherf et al.
# Submitted via: VisiTrax 2.9.10.228 - For more info visit www.synapsa.com
#
DISCID=f60c2810
DTITLE=Bo Göran Svensson - Amerikanska irrfärder
DYEAR=2004
DGENRE=Country
TTITLE0=Den som väntar
TTITLE1=Firma snok and spaning
TTITLE2=Vad blev ditt svar
TTITLE3=Sov på min arm
TTITLE4=Om jag reste tillbaka
TTITLE5=Mitt hjärta längtar ut
TTITLE6=Ett cajun dragspel
TTITLE7=I en lägenhet i köpenhamn
TTITLE8=Syns långa vägar utanpå
TTITLE9=Små nära ting
TTITLE10=Lapp på lapp
TTITLE11=Tredje gången jill
TTITLE12=I brustna hjärtans lager och butik
TTITLE13=Intygas härmed
TTITLE14=Spela filofaxen när jag dör
TTITLE15=Flickan i havanna
EXTD=
EXTT0=
EXTT1=
EXTT2=
EXTT3=
EXTT4=
EXTT5=
EXTT6=
EXTT7=
EXTT8=
EXTT9=
EXTT10=
EXTT11=
EXTT12=
EXTT13=
EXTT14=
EXTT15=
PLAYORDER=
